<svg id="Layer_1" data-name="Layer 1" xmlns="http://www.w3.org/2000/svg" viewBox="0 0 167.59 114.28"><defs><style>.cls-1{fill:#363e51;}.cls-2{fill:#ff1f1f;}</style></defs><title>ap-logo</title><polygon class="cls-1" points="79.46 114.28 98.54 114.28 52.45 0 33.37 0 63.48 74.66 35.06 74.66 44.06 52.34 34.52 28.68 0 114.28 19.08 114.28 28 92.16 70.54 92.16 79.46 114.28"/><path class="cls-2" d="M124.48,4.92H61.19L91.3,79.58H85.53l7.06,17.5h5.77l8.92,22.12h19.08l-39-96.78h37.14a28.58,28.58,0,1,1,0,57.16h-3.67l7,17.36a46.07,46.07,0,0,0-3.33-92Z" transform="translate(-2.97 -4.92)"/></svg>