<svg id="Layer_1" data-name="Layer 1" xmlns="http://www.w3.org/2000/svg" viewBox="0 0 172.24 139.45"><defs><style>.cls-1,.cls-3{fill:#fff;}.cls-2{fill:#ff1f1f;}.cls-3{font-size:7.34px;font-family:Lato-Semibold, Lato;font-weight:600;letter-spacing:0.2em;}.cls-4{letter-spacing:0.2em;}.cls-5{letter-spacing:0.18em;}.cls-6{letter-spacing:0.2em;}.cls-7{letter-spacing:0.19em;}.cls-8{letter-spacing:0.19em;}</style></defs><title>white-logo</title><polygon class="cls-1" points="82.35 99.25 98.93 99.25 58.9 0 42.33 0 68.48 64.84 43.8 64.84 51.61 45.45 43.33 24.91 13.35 99.25 29.92 99.25 37.67 80.04 74.61 80.04 82.35 99.25"/><path class="cls-2" d="M122.76,18.68h-55L93.94,83.51h-5l6.13,15.2h5l7.75,19.22h16.57L90.5,33.88h32.26a24.82,24.82,0,0,1,0,49.63h-3.19l6.08,15.09a40,40,0,0,0-2.89-79.92Z" transform="translate(-3.88 -18.67)"/><path class="cls-1" d="M24.33,146.09l7.13-17.53h.78l7.07,17.53h-.9l-6.77-16.8H32l-6.82,16.8Zm3-5.78v-.76h9.05v.76Z" transform="translate(-3.88 -18.67)"/><path class="cls-1" d="M47.71,146.34a7.4,7.4,0,0,1-3.52-.79,7.62,7.62,0,0,1-2.57-2.16l.6-.57a6.39,6.39,0,0,0,2.46,2.11,7.13,7.13,0,0,0,3.08.64,5,5,0,0,0,3.14-.94A3.08,3.08,0,0,0,52.12,142a3.68,3.68,0,0,0-.51-2,4,4,0,0,0-1.33-1.29,12.75,12.75,0,0,0-1.82-.86l-2-.76a9.08,9.08,0,0,1-1.81-.93,4.34,4.34,0,0,1-1.34-1.42,4.45,4.45,0,0,1-.5-2.22,3.91,3.91,0,0,1,2.31-3.69,5.62,5.62,0,0,1,2.54-.54,6.75,6.75,0,0,1,3,.65A6.43,6.43,0,0,1,53,130.82l-.6.57a6.46,6.46,0,0,0-2-1.71,5.57,5.57,0,0,0-2.65-.6,4.38,4.38,0,0,0-2.88.91,3,3,0,0,0-1.12,2.51,3.29,3.29,0,0,0,.51,1.91,4.11,4.11,0,0,0,1.33,1.22,11.69,11.69,0,0,0,1.82.83c.65.23,1.31.48,2,.74a9.15,9.15,0,0,1,1.81,1,4.39,4.39,0,0,1,1.34,1.47,4.62,4.62,0,0,1,.5,2.27,4,4,0,0,1-1.41,3.33A6,6,0,0,1,47.71,146.34Z" transform="translate(-3.88 -18.67)"/><path class="cls-1" d="M62.2,146.34a7.47,7.47,0,0,1-3.53-.79,7.68,7.68,0,0,1-2.56-2.16l.59-.57a6.49,6.49,0,0,0,2.47,2.11,7.13,7.13,0,0,0,3.08.64,5,5,0,0,0,3.14-.94A3.08,3.08,0,0,0,66.61,142a3.68,3.68,0,0,0-.51-2,4,4,0,0,0-1.33-1.29,12.75,12.75,0,0,0-1.82-.86l-2-.76a8.82,8.82,0,0,1-1.81-.93,4.24,4.24,0,0,1-1.34-1.42,4.45,4.45,0,0,1-.5-2.22,4,4,0,0,1,.61-2.22,4,4,0,0,1,1.69-1.47,5.68,5.68,0,0,1,2.54-.54,6.76,6.76,0,0,1,3,.65,6.43,6.43,0,0,1,2.26,1.87l-.6.57a6.46,6.46,0,0,0-2-1.71,5.58,5.58,0,0,0-2.66-.6,4.37,4.37,0,0,0-2.87.91,3,3,0,0,0-1.12,2.51,3.29,3.29,0,0,0,.51,1.91A4,4,0,0,0,60,135.63a11.69,11.69,0,0,0,1.82.83c.65.23,1.31.48,2,.74a9.15,9.15,0,0,1,1.81,1A4.5,4.5,0,0,1,67,139.62a4.62,4.62,0,0,1,.5,2.27,4,4,0,0,1-1.41,3.33A6,6,0,0,1,62.2,146.34Z" transform="translate(-3.88 -18.67)"/><path class="cls-1" d="M72.33,146.09V128.56h.83v17.53Zm.47-16.77v-.76H83.45v.76Zm0,8.14v-.73h10v.73Zm0,8.63v-.76H83.61v.76Z" transform="translate(-3.88 -18.67)"/><path class="cls-1" d="M86.1,129.32v-.76h14.15v.76Zm6.66,16.77v-17h.83v17Z" transform="translate(-3.88 -18.67)"/><path class="cls-2" d="M104.73,146.09V128.56h.83v17.53Zm.42-7.47v-.75h6a5,5,0,0,0,2.31-.52,3.91,3.91,0,0,0,1.59-1.48,4.77,4.77,0,0,0,0-4.56,4,4,0,0,0-1.59-1.48,5.09,5.09,0,0,0-2.31-.51h-6v-.76h6.09a5.54,5.54,0,0,1,2.67.63,4.65,4.65,0,0,1,1.85,1.75,5.45,5.45,0,0,1,0,5.31,4.79,4.79,0,0,1-1.85,1.75,5.65,5.65,0,0,1-2.67.62Z" transform="translate(-3.88 -18.67)"/><path class="cls-2" d="M121,146.09V128.56h.83v17.53Zm.41-8.25v-.75h5.76a4.54,4.54,0,0,0,3.26-1.07,4.11,4.11,0,0,0,0-5.64,4.54,4.54,0,0,0-3.26-1.06h-5.76v-.76H127a6.62,6.62,0,0,1,2.93.59,4.17,4.17,0,0,1,1.81,1.63,5.05,5.05,0,0,1,0,4.85,4.17,4.17,0,0,1-1.81,1.63,6.63,6.63,0,0,1-2.93.58Zm11.2,8.25-7-8.61.91-.15,7.23,8.76Z" transform="translate(-3.88 -18.67)"/><path class="cls-2" d="M145,146.34a8.38,8.38,0,0,1-3.41-.68,8.12,8.12,0,0,1-2.73-1.93,9,9,0,0,1-1.82-2.89,10.06,10.06,0,0,1,0-7.09,8.52,8.52,0,0,1,4.52-4.76,8.3,8.3,0,0,1,3.4-.69,8.41,8.41,0,0,1,3.41.69,8.27,8.27,0,0,1,2.72,1.91,8.69,8.69,0,0,1,1.8,2.86,10.09,10.09,0,0,1,0,7.1,8.56,8.56,0,0,1-1.8,2.88,8.47,8.47,0,0,1-2.71,1.92A8.17,8.17,0,0,1,145,146.34Zm0-.8a7.23,7.23,0,0,0,3.94-1.09,7.79,7.79,0,0,0,2.74-2.95,8.64,8.64,0,0,0,1-4.2,8.79,8.79,0,0,0-.59-3.23,8.16,8.16,0,0,0-1.62-2.6,7.37,7.37,0,0,0-2.43-1.74,7.57,7.57,0,0,0-3.06-.62,7.37,7.37,0,0,0-3.94,1.07,7.73,7.73,0,0,0-2.74,2.93,9.24,9.24,0,0,0-.41,7.43,8.3,8.3,0,0,0,1.62,2.63,7.4,7.4,0,0,0,2.43,1.75A7.51,7.51,0,0,0,145,145.54Z" transform="translate(-3.88 -18.67)"/><text class="cls-3" transform="translate(0.01 137.41)">ASSE<tspan class="cls-4" x="23.15" y="0">T</tspan><tspan x="28.97" y="0">S REFINE</tspan><tspan class="cls-5" x="71.57" y="0">D</tspan><tspan class="cls-6" x="78.45" y="0">, G</tspan><tspan class="cls-7" x="91.71" y="0">R</tspan><tspan class="cls-8" x="97.78" y="0">O</tspan><tspan x="105.06" y="0">WTH DEFINED</tspan></text></svg>